<svg id="Camada_1" data-name="Camada 1" xmlns="http://www.w3.org/2000/svg" viewBox="0 0 20 20"><defs><style>.cls-1{fill:#0f4a7f;}.cls-2{fill:#fff;}</style></defs><title>1</title><circle class="cls-1" cx="10" cy="10" r="9.78"/><path class="cls-2" d="M7,10.78A5.63,5.63,0,0,1,8.05,7a4,4,0,0,1,3.22-1.25,5.73,5.73,0,0,1,1.15.09V7.29a4.59,4.59,0,0,0-1-.12,3.65,3.65,0,0,0-1.52.28A1.92,1.92,0,0,0,9,8.28a3.84,3.84,0,0,0-.35,1.57h.08a2,2,0,0,1,1.85-1,2.29,2.29,0,0,1,1.8.72,2.85,2.85,0,0,1,.65,2,3,3,0,0,1-.77,2.17,2.86,2.86,0,0,1-2.14.8,3.09,3.09,0,0,1-1.66-.44,2.9,2.9,0,0,1-1.09-1.29A4.81,4.81,0,0,1,7,10.78Zm3.09,2.31A1.07,1.07,0,0,0,11,12.7a1.73,1.73,0,0,0,.31-1.11,1.56,1.56,0,0,0-.29-1,1,1,0,0,0-.87-.36,1.31,1.31,0,0,0-.94.36,1.09,1.09,0,0,0-.39.83,1.9,1.9,0,0,0,.36,1.18A1.14,1.14,0,0,0,10.07,13.09Z"/></svg>