<svg id="Camada_1" data-name="Camada 1" xmlns="http://www.w3.org/2000/svg" viewBox="0 0 20 20"><defs><style>.cls-1{fill:#0f4a7f;}.cls-2{fill:#fff;}</style></defs><title>1</title><circle class="cls-1" cx="10" cy="10" r="9.78"/><path class="cls-2" d="M10,5.6a3.25,3.25,0,0,1,2,.56,1.8,1.8,0,0,1,.75,1.51,2,2,0,0,1-.36,1.17,3.09,3.09,0,0,1-1.17.92,4.15,4.15,0,0,1,1.38,1.07A2,2,0,0,1,13,12.06a2.06,2.06,0,0,1-.83,1.7A3.5,3.5,0,0,1,10,14.4a3.6,3.6,0,0,1-2.21-.6A2,2,0,0,1,7,12.11a2.22,2.22,0,0,1,.39-1.3,3.28,3.28,0,0,1,1.25-1,3.06,3.06,0,0,1-1.05-1,2.19,2.19,0,0,1-.32-1.15A1.77,1.77,0,0,1,8,6.17,3.24,3.24,0,0,1,10,5.6ZM8.67,12a1,1,0,0,0,.35.79,1.56,1.56,0,0,0,1,.28,1.52,1.52,0,0,0,1-.29,1,1,0,0,0,.33-.77,1,1,0,0,0-.33-.73,4.33,4.33,0,0,0-1.07-.73C9.09,10.93,8.67,11.42,8.67,12ZM10,6.93a1.17,1.17,0,0,0-.74.23A.79.79,0,0,0,9,7.8a1,1,0,0,0,.23.63A2.3,2.3,0,0,0,10,9a2.25,2.25,0,0,0,.8-.55A1,1,0,0,0,11,7.8a.77.77,0,0,0-.3-.64A1.12,1.12,0,0,0,10,6.93Z"/></svg>