<svg id="Camada_1" data-name="Camada 1" xmlns="http://www.w3.org/2000/svg" viewBox="0 0 20 20"><defs><style>.cls-1{fill:none;stroke:#7db2d3;stroke-miterlimit:10;stroke-width:0.5px;}.cls-2{fill:#7db2d3;}</style></defs><title>2</title><circle class="cls-1" cx="10" cy="10" r="9.78"/><path class="cls-2" d="M13,14.34H7V13.08l2.15-2.17c.63-.65,1.05-1.1,1.25-1.36a3.16,3.16,0,0,0,.42-.7A1.85,1.85,0,0,0,11,8.19a1,1,0,0,0-.29-.77,1.09,1.09,0,0,0-.76-.25A2.06,2.06,0,0,0,9,7.4a4.37,4.37,0,0,0-1,.65L7,6.88a7.2,7.2,0,0,1,1-.76A3.8,3.8,0,0,1,9,5.78a4.69,4.69,0,0,1,1.1-.12A3.19,3.19,0,0,1,11.47,6a2.27,2.27,0,0,1,1,.82A2.22,2.22,0,0,1,12.77,8a3,3,0,0,1-.21,1.11,4.4,4.4,0,0,1-.65,1.06,16,16,0,0,1-1.53,1.55l-1.11,1v.08H13Z"/></svg>