<svg id="Camada_1" data-name="Camada 1" xmlns="http://www.w3.org/2000/svg" viewBox="0 0 20 20"><defs><style>.cls-1{fill:none;stroke:#7db2d3;stroke-miterlimit:10;stroke-width:0.5px;}.cls-2{fill:#7db2d3;}</style></defs><title>2</title><circle class="cls-1" cx="10" cy="10" r="9.78"/><path class="cls-2" d="M12.71,7.64A2,2,0,0,1,12.23,9a2.5,2.5,0,0,1-1.37.77v0a2.77,2.77,0,0,1,1.57.63A1.73,1.73,0,0,1,13,11.79a2.29,2.29,0,0,1-.89,1.93,4.19,4.19,0,0,1-2.56.68A6.15,6.15,0,0,1,7,13.94V12.4a5.61,5.61,0,0,0,1.09.41A4.41,4.41,0,0,0,9.31,13a2.27,2.27,0,0,0,1.33-.31,1.13,1.13,0,0,0,.43-1,.88.88,0,0,0-.5-.85A3.59,3.59,0,0,0,9,10.58H8.35V9.19H9a3.09,3.09,0,0,0,1.45-.26.94.94,0,0,0,.46-.9c0-.64-.4-1-1.22-1a3,3,0,0,0-.86.14,4.64,4.64,0,0,0-1,.49L7.05,6.44A4.66,4.66,0,0,1,9.84,5.6a3.59,3.59,0,0,1,2.1.54A1.69,1.69,0,0,1,12.71,7.64Z"/></svg>