<svg id="Camada_1" data-name="Camada 1" xmlns="http://www.w3.org/2000/svg" viewBox="0 0 20 20"><defs><style>.cls-1{fill:none;stroke:#7db2d3;stroke-miterlimit:10;stroke-width:0.5px;}.cls-2{fill:#7db2d3;}</style></defs><title>2</title><circle class="cls-1" cx="10" cy="10" r="9.78"/><path class="cls-2" d="M10.15,8.75a2.74,2.74,0,0,1,2,.7,2.49,2.49,0,0,1,.73,1.91A2.78,2.78,0,0,1,12,13.57a3.77,3.77,0,0,1-2.53.77,4.91,4.91,0,0,1-2.31-.46V12.31a5,5,0,0,0,2.24.56c1.11,0,1.66-.45,1.66-1.36s-.57-1.29-1.72-1.29a4.37,4.37,0,0,0-.68.06,4.18,4.18,0,0,0-.61.13L7.31,10l.32-4.36h4.65V7.19H9.22L9.06,8.88l.2-.05A4.44,4.44,0,0,1,10.15,8.75Z"/></svg>